<svg enable-background="new 0 0 128 128" viewBox="0 0 128 128" xmlns="http://www.w3.org/2000/svg" xmlns:xlink="http://www.w3.org/1999/xlink"><linearGradient id="a"><stop offset=".0404" stop-color="#1e88e5" stop-opacity=".9788"/><stop offset="1" stop-color="#b3e5fc"/></linearGradient><linearGradient id="b" gradientUnits="userSpaceOnUse" x1="55.213" x2="55.213" xlink:href="#a" y1="84.833" y2="115.23"/><linearGradient id="c"><stop offset="0" stop-color="#fff"/><stop offset=".7223" stop-color="#fff" stop-opacity="0"/></linearGradient><linearGradient id="d" gradientUnits="userSpaceOnUse" x1="43.356" x2="43.356" xlink:href="#c" y1="93.077" y2="121.01"/><linearGradient id="e" gradientUnits="userSpaceOnUse" x1="59.151" x2="59.151" xlink:href="#c" y1="92.914" y2="120.56"/><radialGradient id="f" cx="39.683" cy="81.715" gradientUnits="userSpaceOnUse" r="67.017"><stop offset="0" stop-color="#e0f7fa"/><stop offset=".3207" stop-color="#c5edfa"/><stop offset=".9933" stop-color="#81d4fa"/></radialGradient><linearGradient id="g" gradientUnits="userSpaceOnUse" x1="87.662" x2="104.14" y1="31.884" y2="80.554"><stop offset=".0404" stop-color="#1e88e5" stop-opacity=".9788"/><stop offset=".2166" stop-color="#1e88e5" stop-opacity=".9788"/><stop offset="1" stop-color="#1976d2" stop-opacity="0"/></linearGradient><radialGradient id="h" cx="81.715" cy="39.624" gradientTransform="matrix(.961 0 0 1 .5385 0)" gradientUnits="userSpaceOnUse" r="56.059"><stop offset=".2675" stop-color="#fff" stop-opacity=".9788"/><stop offset="1" stop-color="#fff" stop-opacity="0"/></radialGradient><linearGradient id="i" gradientUnits="userSpaceOnUse" x1="69.35" x2="69.35" y1="-16.779" y2="92.061"><stop offset="0" stop-color="#81d4fa"/><stop offset=".5111" stop-color="#1e88e5" stop-opacity=".9788"/><stop offset=".7791" stop-color="#1976d2" stop-opacity=".9853"/><stop offset="1" stop-color="#0d47a1"/></linearGradient><linearGradient id="j" gradientUnits="userSpaceOnUse" x1="104.93" x2="104.93" xlink:href="#a" y1="114.55" y2="124.23"/><linearGradient id="k" gradientUnits="userSpaceOnUse" x1="103.33" x2="103.33" xlink:href="#c" y1="113.52" y2="118.16"/><path d="m63.6 86.15c.22-.44.33-.89.33-1.35 0-4.95-13.16-8.97-29.39-8.97s-29.39 4.02-29.39 8.97c0 3.13 19.82 5.01 13.21 7.49-4.87 2.16-7.71 4.75-7.71 7.53 0 7.6 21.18 13.77 47.31 13.77s47.31-6.16 47.31-13.77c0-7.05-18.2-12.86-41.67-13.67z" fill="url(#b)"/><path d="m34.53 110.86v-23.03h17.65v24.76z" fill="url(#d)"/><path d="m55.55 112.33v-24.5h7.2v24.38z" fill="url(#e)"/><path d="m53.61 12.66-26.71 10.07c-3.04 1.15-5.07 4.15-5.07 7.51v52.67c0 2.96 1.94 5.54 4.7 6.24l46.31 11.86c3.63.93 7.43.72 10.94-.6l27.44-10.34c3.37-1.27 5.62-4.6 5.62-8.34v-49.65c0-4.38-2.87-8.19-6.95-9.25l-42.39-10.92c-4.6-1.19-9.43-.93-13.89.75z" fill="url(#f)"/><path d="m114.15 30.08c-5.4 1.03-18.58 5.99-18.58 5.99-11.1 4.5-16.85 5.78-16.85 15.41 0 0-.18 26.48.12 31.54.41 6.74 1.44 9.47 10.35 6.98l13.4-4.21c4.9-1.74 12.36-2.73 11.4-20.11-.72-12.95.16-35.6.16-35.6z" fill="url(#g)"/><path d="m56.03 36.92-26.8-6.82c-2.97-.69-6.13 29.74 6.82 48.07 6.09 8.62 17.05 7.79 24.35 9.58 7.09 1.74 9.36 3.21 9.36 3.21v-39.34c0-9.91 0-9.91-13.73-14.7z" fill="url(#h)"/><path d="m61.75 15.03c1.64 0 3.27.21 4.86.62l42.41 10.93c2.44.63 4.14 2.89 4.14 5.51v49.65c0 2.1-1.28 4-3.18 4.71l-27.44 10.34c-1.66.63-3.4.94-5.17.94-1.22 0-2.44-.15-3.63-.46l-46.31-11.85c-1.11-.28-1.89-1.31-1.89-2.5v-52.68c0-1.74 1.05-3.3 2.62-3.89l26.71-10.06c2.22-.84 4.53-1.26 6.88-1.26m0-3.85c-2.76 0-5.51.5-8.14 1.49l-26.71 10.06c-3.04 1.15-5.07 4.15-5.07 7.51v52.67c0 2.96 1.94 5.54 4.7 6.24l46.31 11.86c1.48.38 3 .57 4.51.57 2.18 0 4.36-.39 6.43-1.17l27.44-10.34c3.37-1.27 5.62-4.6 5.62-8.34v-49.65c0-4.38-2.87-8.19-6.95-9.25l-42.39-10.92c-1.89-.49-3.82-.73-5.75-.73z" fill="url(#i)"/><path d="m67.91 90.34c-.12-.02-8.58-1.32-23.44-5.52-6.71-1.9-14.55-1.65-14.26-15.63.14-6.99.59-27.89.59-28.79 0 0 4.1 13.24 5.09 28.82.44 6.94 2.82 8.7 9.89 10.96 17.58 5.63 22.13 10.16 22.13 10.16z" fill="#fff"/><path d="m34.53 27.66c.06-.02 4.72-1.9 18.18-7.73 8.29-3.59 14.26-1.99 21.83.04.91.24 1.85.49 2.83.75 8.18 2.11 21.86 5.74 21.92 5.76 0 0-10.83 2.09-26-1.85-7.45-1.94-11.8-2.89-18.67-.27-12.95 4.93-20.09 3.3-20.09 3.3z" fill="#29b6f6"/><path d="m78.59 90.95c-.01-.13-.93-16.59-.94-33.1 0-11.79-1.21-16.9 11.83-21.12 7.31-2.37 18.59-5.15 19.12-5.3 0 0-6.06 5.12-17.31 9.76-5.98 2.47-8.77 7.73-8.82 16.68-.15 22.38-3.88 33.08-3.88 33.08z" fill="#1565c0"/><ellipse cx="104.93" cy="117.7" fill="url(#j)" rx="11.68" ry="6.01"/><path d="m116.62 117.7c.08.59.02 1.24-.24 1.83-.25.58-.63 1.12-1.06 1.58-.89.92-1.97 1.61-3.12 2.12-1.14.53-2.35.87-3.56 1.12-1.22.23-2.46.32-3.7.35-1.24-.03-2.48-.13-3.7-.35-1.22-.26-2.43-.59-3.56-1.12-1.14-.51-2.23-1.2-3.12-2.12-.44-.46-.81-1-1.06-1.58-.26-.59-.32-1.24-.24-1.83.26 1.19 1.02 2.07 1.95 2.68.91.63 1.96 1.06 3.03 1.4 2.15.66 4.43.93 6.7.93s4.55-.27 6.7-.93c1.07-.34 2.12-.77 3.03-1.41.93-.6 1.69-1.48 1.95-2.67z" fill="#01579b"/><ellipse cx="103.33" cy="115.65" fill="url(#k)" rx="4.33" ry="2.05"/><path d="m5.15 85c.83 1.13 2.17 1.65 3.43 2.13 1.29.46 2.61.82 3.94 1.14l4.02.93c.67.17 1.34.33 2.02.56.34.12.68.25 1.02.45.17.11.36.23.52.49.19.28.1.77-.08.95-.33.4-.66.56-.99.73-.34.17-.66.3-.96.44-.62.27-1.22.58-1.81.9-1.17.64-2.28 1.4-3.21 2.31-.91.9-1.62 2-1.69 3.12-.09 1.12.53 2.22 1.41 3.1 1.81 1.79 4.32 2.93 6.8 3.92 2.51.96 5.13 1.7 7.77 2.31 5.3 1.21 10.71 1.99 16.15 2.47 5.44.49 10.9.71 16.37.66 5.47 0 10.93-.31 16.37-.85 5.43-.58 10.85-1.41 16.12-2.84 2.63-.71 5.23-1.57 7.66-2.8 1.21-.62 2.37-1.34 3.37-2.26.98-.9 1.84-2.09 1.89-3.49.06 1.4-.73 2.71-1.67 3.71-.97 1.01-2.13 1.81-3.33 2.51-2.41 1.39-5.01 2.41-7.64 3.28-5.28 1.68-10.74 2.73-16.22 3.45-10.97 1.41-22.08 1.56-33.1.61-5.51-.52-11-1.3-16.4-2.63-2.7-.67-5.37-1.47-7.97-2.53-1.3-.53-2.58-1.12-3.81-1.84s-2.42-1.55-3.45-2.64c-.51-.54-.96-1.17-1.29-1.89-.32-.72-.5-1.55-.41-2.36.16-1.66 1.17-2.95 2.23-3.92 1.08-.97 2.3-1.73 3.56-2.36.63-.31 1.27-.6 1.92-.86.33-.13.65-.25.94-.37.28-.12.58-.29.69-.42.04-.08.02.02.03-.01-.01-.04-.11-.13-.22-.21-.24-.16-.54-.3-.84-.42-.62-.24-1.27-.44-1.92-.64l-3.97-1.13c-1.32-.39-2.64-.8-3.91-1.35-1.25-.53-2.58-1.17-3.34-2.35z" fill="#01579b"/></svg>